<?xml version="1.0" encoding="utf-8" ?>
<!DOCTYPE svg PUBLIC "-//W3C//DTD SVG 1.1//EN" "http://www.w3.org/Graphics/SVG/1.1/DTD/svg11.dtd">
<svg height="348" version="1.1" width="530" xmlns="http://www.w3.org/2000/svg">
<line fill="#000000" stroke="#000000" stroke-width="1" x1="90" x2="90" y1="63" y2="68"/>
<line fill="#000000" stroke="#000000" stroke-width="1" x1="90" x2="90" y1="73" y2="78"/>
<line fill="#000000" stroke="#000000" stroke-width="1" x1="90" x2="90" y1="83" y2="88"/>
<line fill="#000000" stroke="#000000" stroke-width="1" x1="90" x2="90" y1="93" y2="98"/>
<line fill="#000000" stroke="#000000" stroke-width="1" x1="90" x2="90" y1="103" y2="108"/>
<line fill="#000000" stroke="#000000" stroke-width="1" x1="90" x2="90" y1="113" y2="118"/>
<line fill="#000000" stroke="#000000" stroke-width="1" x1="90" x2="90" y1="123" y2="128"/>
<line fill="#000000" stroke="#000000" stroke-width="1" x1="90" x2="90" y1="133" y2="138"/>
<line fill="#000000" stroke="#000000" stroke-width="1" x1="90" x2="90" y1="143" y2="148"/>
<line fill="#000000" stroke="#000000" stroke-width="1" x1="90" x2="90" y1="153" y2="158"/>
<line fill="#000000" stroke="#000000" stroke-width="1" x1="90" x2="90" y1="163" y2="168"/>
<line fill="#000000" stroke="#000000" stroke-width="1" x1="90" x2="90" y1="173" y2="178"/>
<line fill="#000000" stroke="#000000" stroke-width="1" x1="90" x2="90" y1="183" y2="188"/>
<line fill="#000000" stroke="#000000" stroke-width="1" x1="90" x2="90" y1="193" y2="198"/>
<line fill="#000000" stroke="#000000" stroke-width="1" x1="90" x2="90" y1="203" y2="208"/>
<line fill="#000000" stroke="#000000" stroke-width="1" x1="90" x2="90" y1="213" y2="218"/>
<line fill="#000000" stroke="#000000" stroke-width="1" x1="90" x2="90" y1="223" y2="228"/>
<line fill="#000000" stroke="#000000" stroke-width="1" x1="90" x2="90" y1="233" y2="238"/>
<line fill="#000000" stroke="#000000" stroke-width="1" x1="90" x2="90" y1="243" y2="248"/>
<line fill="#000000" stroke="#000000" stroke-width="1" x1="90" x2="90" y1="253" y2="258"/>
<line fill="#000000" stroke="#000000" stroke-width="1" x1="90" x2="90" y1="263" y2="268"/>
<line fill="#000000" stroke="#000000" stroke-width="1" x1="90" x2="90" y1="273" y2="278"/>
<line fill="#000000" stroke="#000000" stroke-width="1" x1="90" x2="90" y1="283" y2="288"/>
<line fill="#000000" stroke="#000000" stroke-width="1" x1="90" x2="90" y1="293" y2="298"/>
<line fill="#000000" stroke="#000000" stroke-width="1" x1="90" x2="90" y1="303" y2="308"/>
<line fill="#000000" stroke="#000000" stroke-width="1" x1="90" x2="90" y1="313" y2="318"/>
<line fill="#000000" stroke="#000000" stroke-width="1" x1="90" x2="90" y1="323" y2="328"/>
<rect fill="#ffffff" height="270" stroke="#ffffff" stroke-width="1" width="20" x="80" y="63"/>
<rect fill="none" height="270" stroke="#000000" stroke-width="1" width="20" x="80" y="63"/>
<rect fill="#ffffff" height="50" stroke="#ffffff" stroke-width="1" width="152" x="14" y="14"/>
<rect fill="none" height="50" stroke="#000000" stroke-width="1" width="152" x="14" y="14"/>
<text font-family="Dialog" font-size="12" x="74" y="28">
/Clinet</text>
<line fill="#000000" stroke="#000000" stroke-width="1" x1="265" x2="265" y1="63" y2="68"/>
<line fill="#000000" stroke="#000000" stroke-width="1" x1="265" x2="265" y1="73" y2="78"/>
<line fill="#000000" stroke="#000000" stroke-width="1" x1="265" x2="265" y1="83" y2="88"/>
<line fill="#000000" stroke="#000000" stroke-width="1" x1="265" x2="265" y1="93" y2="98"/>
<line fill="#000000" stroke="#000000" stroke-width="1" x1="265" x2="265" y1="103" y2="108"/>
<line fill="#000000" stroke="#000000" stroke-width="1" x1="265" x2="265" y1="113" y2="118"/>
<line fill="#000000" stroke="#000000" stroke-width="1" x1="265" x2="265" y1="123" y2="128"/>
<line fill="#000000" stroke="#000000" stroke-width="1" x1="265" x2="265" y1="133" y2="138"/>
<line fill="#000000" stroke="#000000" stroke-width="1" x1="265" x2="265" y1="143" y2="148"/>
<line fill="#000000" stroke="#000000" stroke-width="1" x1="265" x2="265" y1="153" y2="158"/>
<line fill="#000000" stroke="#000000" stroke-width="1" x1="265" x2="265" y1="163" y2="168"/>
<line fill="#000000" stroke="#000000" stroke-width="1" x1="265" x2="265" y1="173" y2="178"/>
<line fill="#000000" stroke="#000000" stroke-width="1" x1="265" x2="265" y1="183" y2="188"/>
<line fill="#000000" stroke="#000000" stroke-width="1" x1="265" x2="265" y1="193" y2="198"/>
<line fill="#000000" stroke="#000000" stroke-width="1" x1="265" x2="265" y1="203" y2="208"/>
<line fill="#000000" stroke="#000000" stroke-width="1" x1="265" x2="265" y1="213" y2="218"/>
<line fill="#000000" stroke="#000000" stroke-width="1" x1="265" x2="265" y1="223" y2="228"/>
<line fill="#000000" stroke="#000000" stroke-width="1" x1="265" x2="265" y1="233" y2="238"/>
<line fill="#000000" stroke="#000000" stroke-width="1" x1="265" x2="265" y1="243" y2="248"/>
<line fill="#000000" stroke="#000000" stroke-width="1" x1="265" x2="265" y1="253" y2="258"/>
<line fill="#000000" stroke="#000000" stroke-width="1" x1="265" x2="265" y1="263" y2="268"/>
<line fill="#000000" stroke="#000000" stroke-width="1" x1="265" x2="265" y1="273" y2="278"/>
<line fill="#000000" stroke="#000000" stroke-width="1" x1="265" x2="265" y1="283" y2="288"/>
<line fill="#000000" stroke="#000000" stroke-width="1" x1="265" x2="265" y1="293" y2="298"/>
<line fill="#000000" stroke="#000000" stroke-width="1" x1="265" x2="265" y1="303" y2="308"/>
<line fill="#000000" stroke="#000000" stroke-width="1" x1="265" x2="265" y1="313" y2="318"/>
<line fill="#000000" stroke="#000000" stroke-width="1" x1="265" x2="265" y1="323" y2="328"/>
<rect fill="#ffffff" height="142" stroke="#ffffff" stroke-width="1" width="20" x="255" y="94"/>
<rect fill="none" height="142" stroke="#000000" stroke-width="1" width="20" x="255" y="94"/>
<rect fill="#ffffff" height="48" stroke="#ffffff" stroke-width="1" width="20" x="255" y="268"/>
<rect fill="none" height="48" stroke="#000000" stroke-width="1" width="20" x="255" y="268"/>
<rect fill="#ffffff" height="50" stroke="#ffffff" stroke-width="1" width="150" x="190" y="14"/>
<rect fill="none" height="50" stroke="#000000" stroke-width="1" width="150" x="190" y="14"/>
<text font-family="Dialog" font-size="12" x="245" y="28">
/Trader</text>
<polyline fill="none" points="100,94 255,94" stroke="#000000" stroke-width="1"/>
<polygon fill="#000000" points="255,94 243,101 243,87" stroke="#000000" stroke-width="1"/>
<polygon fill="none" points="255,94 243,101 243,87" stroke="#000000" stroke-width="1"/>
<text font-family="Dialog" font-size="12" x="133" y="89">
Send RFQ</text>
<polyline fill="none" points="255,236 100,236" stroke="#000000" stroke-width="1"/>
<line fill="#000000" stroke="#000000" stroke-width="1" x1="112" x2="100" y1="229" y2="236"/>
<line fill="#000000" stroke="#000000" stroke-width="1" x1="112" x2="100" y1="243" y2="236"/>
<text font-family="Dialog" font-size="12" x="136" y="230">
Send Quote</text>
<polyline fill="none" points="100,268 255,268" stroke="#000000" stroke-width="1"/>
<polygon fill="#000000" points="255,268 243,275 243,261" stroke="#000000" stroke-width="1"/>
<polygon fill="none" points="255,268 243,275 243,261" stroke="#000000" stroke-width="1"/>
<text font-family="Dialog" font-size="12" x="127" y="262">
Send Order</text>
<polyline fill="none" points="255,316 100,316" stroke="#000000" stroke-width="1"/>
<line fill="#000000" stroke="#000000" stroke-width="1" x1="112" x2="100" y1="309" y2="316"/>
<line fill="#000000" stroke="#000000" stroke-width="1" x1="112" x2="100" y1="323" y2="316"/>
<text font-family="Dialog" font-size="12" x="134" y="311">
Execute</text>
<line fill="#000000" stroke="#000000" stroke-width="1" x1="441" x2="441" y1="63" y2="68"/>
<line fill="#000000" stroke="#000000" stroke-width="1" x1="441" x2="441" y1="73" y2="78"/>
<line fill="#000000" stroke="#000000" stroke-width="1" x1="441" x2="441" y1="83" y2="88"/>
<line fill="#000000" stroke="#000000" stroke-width="1" x1="441" x2="441" y1="93" y2="98"/>
<line fill="#000000" stroke="#000000" stroke-width="1" x1="441" x2="441" y1="103" y2="108"/>
<line fill="#000000" stroke="#000000" stroke-width="1" x1="441" x2="441" y1="113" y2="118"/>
<line fill="#000000" stroke="#000000" stroke-width="1" x1="441" x2="441" y1="123" y2="128"/>
<line fill="#000000" stroke="#000000" stroke-width="1" x1="441" x2="441" y1="133" y2="138"/>
<line fill="#000000" stroke="#000000" stroke-width="1" x1="441" x2="441" y1="143" y2="148"/>
<line fill="#000000" stroke="#000000" stroke-width="1" x1="441" x2="441" y1="153" y2="158"/>
<line fill="#000000" stroke="#000000" stroke-width="1" x1="441" x2="441" y1="163" y2="168"/>
<line fill="#000000" stroke="#000000" stroke-width="1" x1="441" x2="441" y1="173" y2="178"/>
<line fill="#000000" stroke="#000000" stroke-width="1" x1="441" x2="441" y1="183" y2="188"/>
<line fill="#000000" stroke="#000000" stroke-width="1" x1="441" x2="441" y1="193" y2="198"/>
<line fill="#000000" stroke="#000000" stroke-width="1" x1="441" x2="441" y1="203" y2="208"/>
<line fill="#000000" stroke="#000000" stroke-width="1" x1="441" x2="441" y1="213" y2="218"/>
<line fill="#000000" stroke="#000000" stroke-width="1" x1="441" x2="441" y1="223" y2="228"/>
<line fill="#000000" stroke="#000000" stroke-width="1" x1="441" x2="441" y1="233" y2="238"/>
<line fill="#000000" stroke="#000000" stroke-width="1" x1="441" x2="441" y1="243" y2="248"/>
<line fill="#000000" stroke="#000000" stroke-width="1" x1="441" x2="441" y1="253" y2="258"/>
<line fill="#000000" stroke="#000000" stroke-width="1" x1="441" x2="441" y1="263" y2="268"/>
<line fill="#000000" stroke="#000000" stroke-width="1" x1="441" x2="441" y1="273" y2="278"/>
<line fill="#000000" stroke="#000000" stroke-width="1" x1="441" x2="441" y1="283" y2="288"/>
<line fill="#000000" stroke="#000000" stroke-width="1" x1="441" x2="441" y1="293" y2="298"/>
<line fill="#000000" stroke="#000000" stroke-width="1" x1="441" x2="441" y1="303" y2="308"/>
<line fill="#000000" stroke="#000000" stroke-width="1" x1="441" x2="441" y1="313" y2="318"/>
<line fill="#000000" stroke="#000000" stroke-width="1" x1="441" x2="441" y1="323" y2="328"/>
<rect fill="#ffffff" height="64" stroke="#ffffff" stroke-width="1" width="20" x="431" y="126"/>
<rect fill="none" height="64" stroke="#000000" stroke-width="1" width="20" x="431" y="126"/>
<rect fill="#ffffff" height="50" stroke="#ffffff" stroke-width="1" width="150" x="366" y="14"/>
<rect fill="none" height="50" stroke="#000000" stroke-width="1" width="150" x="366" y="14"/>
<text font-family="Dialog" font-size="12" x="413" y="28">
/Quant Lib</text>
<polyline fill="none" points="275,126 431,126" stroke="#000000" stroke-width="1"/>
<polygon fill="#000000" points="431,126 419,133 419,119" stroke="#000000" stroke-width="1"/>
<polygon fill="none" points="431,126 419,133 419,119" stroke="#000000" stroke-width="1"/>
<text font-family="Dialog" font-size="12" x="308" y="121">
Calc Request</text>
<polyline fill="none" points="431,190 275,190" stroke="#000000" stroke-width="1"/>
<line fill="#000000" stroke="#000000" stroke-width="1" x1="287" x2="275" y1="183" y2="190"/>
<line fill="#000000" stroke="#000000" stroke-width="1" x1="287" x2="275" y1="197" y2="190"/>
<text font-family="Dialog" font-size="12" x="308" y="185">
Calc Result</text>
</svg>
